<svg class="ldi-e3erty" width="200px"  height="200px"  xmlns="http://www.w3.org/2000/svg" xmlns:xlink="http://www.w3.org/1999/xlink" viewBox="0 0 100 100" preserveAspectRatio="xMidYMid" style="background: none;"><!--?xml version="1.0" encoding="utf-8"?--><!--Generator: Adobe Illustrator 21.0.0, SVG Export Plug-In . SVG Version: 6.00 Build 0)--><svg version="1.1" id="圖層_1" xmlns="http://www.w3.org/2000/svg" xmlns:xlink="http://www.w3.org/1999/xlink" x="0px" y="0px" viewBox="0 0 100 100" style="transform-origin: 50px 50px 0px;" xml:space="preserve" class=""><g class="" style="transform-origin: 50px 50px 0px; transform: scale(0.6);"><g class="" style="transform-origin: 50px 50px 0px;"><style type="text/css" class="ld ld-vortex-out" style="transform-origin: 50px 50px 0px; animation-duration: 1s; animation-delay: -1s;">.st0{fill:#E0E0E0;} .st1{fill:#F8B26A;} .st2{fill:#F5E6C8;} .st3{fill:#849B87;} .st4{opacity:0.2;fill:#F8B26A;} .st5{opacity:0.2;fill:#ABBD81;} .st6{opacity:0.5;fill:#F8B26A;} .st7{opacity:0.5;fill:#ABBD81;} .st8{fill:none;stroke:#E0E0E0;stroke-width:4;stroke-miterlimit:10;} .st9{fill:#666666;} .st10{fill:#F47E60;} .st11{fill:#ABBD81;} .st12{fill:#A0C8D7;} .st13{fill:#333333;} .st14{fill:#FFFFFF;stroke:#1A1A1A;stroke-width:6;stroke-linejoin:round;stroke-miterlimit:10;} .st15{fill:#666666;stroke:#1A1A1A;stroke-width:6;stroke-linejoin:round;stroke-miterlimit:10;} .st16{fill:none;stroke:#1A1A1A;stroke-width:6;stroke-miterlimit:10;} .st17{fill:#1A1A1A;} .st18{fill:#FFFFFF;stroke:#1A1A1A;stroke-width:6;stroke-miterlimit:10;} .st19{fill:#666666;stroke:#1A1A1A;stroke-width:6;stroke-miterlimit:10;} .st20{fill:none;stroke:#FFFFFF;stroke-width:6;stroke-miterlimit:10;} .st21{fill:none;stroke:#FFFFFF;stroke-width:6;stroke-linejoin:round;stroke-miterlimit:10;} .st22{fill:#FFFFFF;} .st23{fill:#353035;} .st24{fill:#F5E169;} .st25{fill:none;stroke:#ABBD81;stroke-width:8;stroke-linecap:round;stroke-miterlimit:10;} .st26{fill:none;stroke:#E0E0E0;stroke-width:8;stroke-linecap:round;stroke-miterlimit:10;} .st27{fill:#FFDC6C;} .st28{fill:none;} .st29{fill:#C59B6D;} .st30{fill:#E6E6E6;} .st31{fill:#77A4BD;} .st32{fill:#6079BD;} .st33{fill:#405A9E;} .st34{fill:none;stroke:#405A9E;stroke-width:1.1292;stroke-miterlimit:10;} .st35{fill:#7D5A41;} .st36{fill:#E6CCAE;} .st37{fill:#CC632F;} .st38{fill:#998268;} .st39{fill:#D4C097;} .st40{fill:#A8A8A8;} .st41{fill:#CCCCCC;} .st42{fill:#999999;} .st43{stroke:#000000;stroke-width:1.8743;stroke-miterlimit:10;} .st44{fill:#FFFFFF;stroke:#000000;stroke-width:1.1246;stroke-miterlimit:10;} .st45{fill:#FFDC6D;} .st46{fill:#A0C8D7;stroke:#FFFFFF;stroke-width:4;stroke-linecap:round;stroke-miterlimit:10;} .st47{stroke:#F5E6C8;stroke-linecap:round;stroke-linejoin:round;stroke-miterlimit:10;} .st48{fill:none;stroke:#F5E6C8;stroke-linecap:round;stroke-linejoin:round;stroke-miterlimit:10;} .st49{fill:#FFFFFF;stroke:#F5E6C8;stroke-linecap:round;stroke-linejoin:round;stroke-miterlimit:10;} .st50{fill:none;stroke:#F5E6C8;stroke-miterlimit:10;} .st51{stroke:#F5E6C8;stroke-width:3;stroke-miterlimit:10;} .st52{stroke:#F5E6C8;stroke-miterlimit:10;} .st53{fill:none;stroke:#F5E6C8;stroke-linecap:round;stroke-linejoin:round;} .st54{fill:none;stroke:#F5E169;stroke-width:0.7105;stroke-miterlimit:10;} .st55{fill:none;stroke:#F5E169;stroke-width:0.675;stroke-miterlimit:10;} .st56{fill:none;stroke:#F5E169;stroke-width:0.6594;stroke-miterlimit:10;} .st57{fill:#1A1A1A;stroke:#F5E169;stroke-width:0.8;stroke-miterlimit:10;} .st58{fill:#FF0000;} .st59{fill:#D686A5;} .st60{fill:#AFA5CD;} .st61{opacity:0.5;fill:none;} .st62{opacity:0.2;fill:#849B87;} .st63{opacity:0.2;fill:#A0C8D7;} .st64{opacity:0.2;fill:#77A4BD;} .st65{opacity:0.5;fill:#849B87;} .st66{opacity:0.5;fill:#A0C8D7;} .st67{opacity:0.5;fill:#77A4BD;} .st68{fill:none;stroke:#333333;stroke-width:4;stroke-miterlimit:10;} .st69{fill:#F5E6C8;stroke:#333333;stroke-width:3;stroke-miterlimit:10;}</style><g class="ld ld-vortex-out" style="transform-origin: 50px 50px 0px; animation-duration: 1s; animation-delay: -0.928571s;"><path class="st24" d="M57.7,35.7l-8.3-0.6c-6.5-0.5-11.6-5.6-12-12.1l-0.6-9.6c0-0.6-0.5-1.1-1.1-1.1h-0.3c-0.6,0-1.1,0.5-1.1,1.1 L33.7,23c-0.4,6.5-5.5,11.6-12,12.1l-8.3,0.6c-0.5,0-1,0.4-1.1,0.9c-0.1,0.7,0.4,1.3,1,1.3l8.4,0.6c6.5,0.5,11.6,5.6,12,12.1 l0.6,9.6c0,0.6,0.5,1.1,1.1,1.1h0.3c0.6,0,1.1-0.5,1.1-1.1l0.6-9.6c0.4-6.5,5.5-11.6,12-12.1l8.4-0.6c0.7,0,1.1-0.6,1-1.3 C58.7,36.1,58.2,35.7,57.7,35.7z" fill="rgb(245, 225, 105)" stroke="rgb(255, 255, 255)" style="fill: rgb(245, 225, 105); stroke: rgb(255, 255, 255);"></path></g><g class="ld ld-vortex-out" style="transform-origin: 50px 50px 0px; animation-duration: 1s; animation-delay: -0.857143s;"><path class="st24" d="M65.2,74.9L61,74.6c-3.2-0.2-5.8-2.8-6-6l-0.3-4.8c0-0.3-0.3-0.5-0.6-0.5h-0.1c-0.3,0-0.5,0.2-0.6,0.5 l-0.3,4.8c-0.2,3.2-2.8,5.8-6,6l-4.2,0.3c-0.3,0-0.5,0.2-0.5,0.5C42.5,75.7,42.7,76,43,76l4.2,0.3c3.2,0.2,5.8,2.8,6,6l0.3,4.8 c0,0.3,0.3,0.5,0.6,0.5h0.1c0.3,0,0.5-0.2,0.6-0.5l0.3-4.8c0.2-3.2,2.8-5.8,6-6l4.2-0.3c0.3,0,0.6-0.3,0.5-0.7 C65.7,75.1,65.5,74.9,65.2,74.9z" fill="rgb(245, 225, 105)" stroke="rgb(255, 255, 255)" style="fill: rgb(245, 225, 105); stroke: rgb(255, 255, 255);"></path></g><g class="ld ld-vortex-out" style="transform-origin: 50px 50px 0px; animation-duration: 1s; animation-delay: -0.785714s;"><path class="st24" d="M91.6,50.3l-6.5-0.5c-5-0.4-8.9-4.5-9.3-9.6l-0.5-7.7c0-0.5-0.4-0.8-0.9-0.8h-0.2c-0.5,0-0.8,0.4-0.9,0.8 l-0.5,7.7c-0.3,5.1-4.3,9.3-9.3,9.6l-6.5,0.5c-0.4,0-0.8,0.3-0.8,0.7c-0.1,0.5,0.3,1,0.8,1.1l6.5,0.5c5,0.4,8.9,4.5,9.3,9.6l0.5,7.7 c0,0.5,0.4,0.8,0.9,0.8h0.2c0.5,0,0.8-0.4,0.9-0.8l0.5-7.7c0.3-5.1,4.3-9.3,9.3-9.6l6.5-0.5c0.5,0,0.9-0.5,0.8-1.1 C92.4,50.7,92.1,50.4,91.6,50.3z" fill="rgb(245, 225, 105)" stroke="rgb(255, 255, 255)" style="fill: rgb(245, 225, 105); stroke: rgb(255, 255, 255);"></path></g><g class="ld ld-vortex-out" style="transform-origin: 50px 50px 0px; animation-duration: 1s; animation-delay: -0.714286s;"><path class="st24" d="M28.2,70.2l-3.8-0.3c-2.9-0.2-5.3-2.6-5.5-5.5l-0.3-4.4c0-0.3-0.2-0.5-0.5-0.5H18c-0.3,0-0.5,0.2-0.5,0.5 l-0.3,4.4c-0.2,2.9-2.5,5.3-5.5,5.5L8,70.2c-0.2,0-0.5,0.2-0.5,0.4C7.5,71,7.7,71.2,8,71.2l3.8,0.3c2.9,0.2,5.3,2.6,5.5,5.5l0.3,4.4 c0,0.3,0.2,0.5,0.5,0.5h0.1c0.3,0,0.5-0.2,0.5-0.5l0.3-4.4c0.2-2.9,2.5-5.3,5.5-5.5l3.8-0.3c0.3,0,0.5-0.3,0.5-0.6 C28.6,70.4,28.4,70.2,28.2,70.2z" fill="rgb(245, 225, 105)" stroke="rgb(255, 255, 255)" style="fill: rgb(245, 225, 105); stroke: rgb(255, 255, 255);"></path></g><metadata xmlns:d="https://loading.io/stock/" class="ld ld-vortex-out" style="transform-origin: 50px 50px 0px; animation-duration: 1s; animation-delay: -0.642857s;">
<d:name class="ld ld-vortex-out" style="transform-origin: 50px 50px 0px; animation-duration: 1s; animation-delay: -0.571429s;">cluster</d:name>
<d:tags class="ld ld-vortex-out" style="transform-origin: 50px 50px 0px; animation-duration: 1s; animation-delay: -0.5s;">galaxy,nebula,supernova,bright,twinkle,cluster,astrology</d:tags>
<d:license class="ld ld-vortex-out" style="transform-origin: 50px 50px 0px; animation-duration: 1s; animation-delay: -0.428571s;">rf</d:license>
<d:slug class="ld ld-vortex-out" style="transform-origin: 50px 50px 0px; animation-duration: 1s; animation-delay: -0.357143s;">e3erty</d:slug>
</metadata></g></g><style type="text/css" class="ld ld-vortex-out" style="transform-origin: 50px 50px 0px; animation-duration: 1s; animation-delay: -0.285714s;">path,ellipse,circle,rect,polygon,polyline,line { stroke-width: 0; }@keyframes ld-vortex-out {
  0% {
    -webkit-transform: rotate(0deg) scale(0);
    transform: rotate(0deg) scale(0);
    opacity: 1;
  }
  60% {
    -webkit-transform: rotate(1800deg) scale(1);
    transform: rotate(1800deg) scale(1);
    opacity: 1;
  }
  100% {
    -webkit-transform: rotate(1800deg) scale(1);
    transform: rotate(1800deg) scale(1);
    opacity: 0;
  }
}
@-webkit-keyframes ld-vortex-out {
  0% {
    -webkit-transform: rotate(0deg) scale(0);
    transform: rotate(0deg) scale(0);
    opacity: 1;
  }
  60% {
    -webkit-transform: rotate(1800deg) scale(1);
    transform: rotate(1800deg) scale(1);
    opacity: 1;
  }
  100% {
    -webkit-transform: rotate(1800deg) scale(1);
    transform: rotate(1800deg) scale(1);
    opacity: 0;
  }
}
.ld.ld-vortex-out {
  -webkit-animation: ld-vortex-out 2s infinite;
  animation: ld-vortex-out 2s infinite;
  animation-timing-function: cubic-bezier(0.5, 0, 1, 0.5);
}
</style></svg></svg>